<svg width="453" height="48" viewBox="0 0 453 48" fill="none" xmlns="http://www.w3.org/2000/svg">
<path d="M0.00488281 47H31.0267C40.6892 47 46.7919 42.2323 46.7919 34.2225C46.7919 28.692 43.2956 24.8143 38.7186 23.2886C41.8335 21.9537 45.3934 18.9659 45.3934 13.499C45.3934 5.67993 39.7993 1.35722 29.946 1.35722H0.00488281V47ZM8.96815 19.9195V9.11267H28.9925C33.6966 9.11267 36.5572 10.9562 36.5572 14.5161C36.5572 18.1395 33.6966 19.9195 28.9925 19.9195H8.96815ZM8.96815 27.4842H30.391C35.0316 27.4842 37.765 29.8998 37.765 33.3326C37.765 36.8289 35.0316 39.181 30.391 39.181H8.96815V27.4842Z" fill="white" fill-opacity="0.75"/>
<path d="M50.5698 47H92.017V38.9267H59.9145V1.35722H50.5698V47Z" fill="white" fill-opacity="0.75"/>
<path d="M116.978 0.657959C101.34 0.657959 90.025 10.6383 90.025 24.1786C90.025 37.7189 101.34 47.6992 116.978 47.6992C132.553 47.6992 143.932 37.7189 143.932 24.1786C143.932 10.6383 132.553 0.657959 116.978 0.657959ZM116.978 8.8584C127.213 8.8584 134.333 14.9611 134.333 24.1786C134.333 33.3961 127.213 39.4988 116.978 39.4988C106.744 39.4988 99.6239 33.3961 99.6239 24.1786C99.6239 14.9611 106.744 8.8584 116.978 8.8584Z" fill="white" fill-opacity="0.75"/>
<path d="M146.674 24.1786C146.674 37.7189 158.18 47.6992 173.627 47.6992C185.578 47.6992 194.351 42.2958 197.847 33.3326L189.774 29.2641C187.167 35.6846 181.7 39.4988 173.691 39.4988C163.71 39.4988 156.209 33.3961 156.209 24.1786C156.209 14.9611 163.71 8.8584 173.691 8.8584C181.7 8.8584 187.167 12.6726 189.774 19.0931L197.847 15.0246C194.351 6.06135 185.578 0.657959 173.627 0.657959C158.18 0.657959 146.674 10.6383 146.674 24.1786Z" fill="white" fill-opacity="0.75"/>
<path d="M210.368 1.35722H201.023V47H210.368V33.5233L218.949 26.4035L238.275 47H250.607L225.815 20.6823L249.145 1.35722H235.986L210.368 23.2251V1.35722Z" fill="white" fill-opacity="0.75"/>
<path d="M246.944 37.0832C251.394 43.5037 262.201 47.6992 273.071 47.6992C285.976 47.6992 295.956 42.6773 295.956 32.6969C295.956 22.8436 286.802 21.1273 273.834 19.6652C262.264 18.3302 259.213 17.5674 259.213 14.2618C259.213 11.2105 262.9 8.60412 271.037 8.60412C278.793 8.60412 285.277 11.2105 288.773 15.7239L295.003 9.74837C290.871 4.28141 281.717 0.657959 271.546 0.657959C258.577 0.657959 250.123 6.5699 250.123 15.2153C250.123 24.2422 258.705 26.34 269.893 27.6113C282.734 29.0099 286.484 29.3913 286.484 33.714C286.484 37.401 281.081 39.6895 273.453 39.6895C266.714 39.6895 258.45 37.5281 253.238 30.5355L246.944 37.0832Z" fill="white" fill-opacity="0.75"/>
<path d="M338.444 1.35722V19.538H309.138V1.35722H299.794V47H309.138V27.6113H338.444V47H347.852V1.35722H338.444Z" fill="white" fill-opacity="0.75"/>
<path d="M378.929 0.657959C363.29 0.657959 351.975 10.6383 351.975 24.1786C351.975 37.7189 363.29 47.6992 378.929 47.6992C394.503 47.6992 405.882 37.7189 405.882 24.1786C405.882 10.6383 394.503 0.657959 378.929 0.657959ZM378.929 8.8584C389.163 8.8584 396.283 14.9611 396.283 24.1786C396.283 33.3961 389.163 39.4988 378.929 39.4988C368.694 39.4988 361.574 33.3961 361.574 24.1786C361.574 14.9611 368.694 8.8584 378.929 8.8584Z" fill="white" fill-opacity="0.75"/>
<path d="M452.802 9.43052V1.35722H403.091V9.43052H423.243V47H432.651V9.43052H452.802Z" fill="white" fill-opacity="0.75"/>
</svg>
