<svg width="457" height="52" viewBox="0 0 457 52" fill="none" xmlns="http://www.w3.org/2000/svg">
<path fill-rule="evenodd" clip-rule="evenodd" d="M0.00488281 51V1.35722H31.946C37.127 1.35722 41.4888 2.48866 44.5971 4.92084C47.7794 7.4109 49.3934 11.0656 49.3934 15.499C49.3934 20.0199 47.3266 23.1172 44.8744 25.103C47.7449 27.0092 49.8961 29.9393 50.5698 33.684V1.35722H63.9145V38.9267H93.5614C91.2954 35.249 90.025 30.9304 90.025 26.1786C90.025 11.2921 102.494 0.657959 118.978 0.657959C133.245 0.657959 144.58 8.68565 147.305 20.5593C150.055 8.68208 161.476 0.657959 175.627 0.657959C187.512 0.657959 196.781 5.78332 201.023 14.7063V1.35722H214.368V20.8883L237.248 1.35722H256.695L230.732 22.8626L248.207 41.4125C247.885 41.0258 247.582 40.629 247.3 40.2224L246.368 38.8772L255.431 29.4484L256.841 31.3402C261.535 37.6368 269.064 39.6895 275.453 39.6895C279.104 39.6895 282.054 39.1365 284.011 38.2594C286.017 37.3603 286.484 36.3942 286.484 35.714C286.484 34.9295 286.32 34.605 286.159 34.4107C285.958 34.1684 285.506 33.8252 284.397 33.4716C282.098 32.7388 278.217 32.3119 271.676 31.5996L271.667 31.5986C266.093 30.9651 260.809 30.0997 256.902 28.1024C254.908 27.0832 253.185 25.7279 251.969 23.8822C250.744 22.0236 250.123 19.8043 250.123 17.2153C250.123 12.1531 252.631 7.92876 256.841 5.04468C261 2.19526 266.785 0.657959 273.546 0.657959C284.051 0.657959 293.941 4.381 298.598 10.5424L299.67 11.9609L290.553 20.706L289.192 18.9487C286.199 15.0847 280.41 12.6041 273.037 12.6041C269.141 12.6041 266.552 13.2344 265.014 14.0538C263.52 14.85 263.213 15.6839 263.213 16.2618C263.213 16.758 263.317 16.9254 263.404 17.0285C263.539 17.19 263.895 17.4829 264.844 17.8141C266.798 18.4959 270.203 19.0021 276.06 19.6779C282.476 20.4013 288.35 21.2158 292.611 23.2254C294.792 24.2538 296.665 25.6433 297.98 27.5894C298.923 28.9842 299.525 30.5843 299.794 32.3961V1.35722H313.138V19.538H338.444V1.35722H351.852V51H338.444V31.6113H313.138V51H299.794V36.9931C299.117 41.6475 296.376 45.2225 292.394 47.6487C287.865 50.4078 281.741 51.6992 275.071 51.6992C269.392 51.6992 263.719 50.6054 258.856 48.6552C255.368 47.2566 252.213 45.3827 249.779 43.0816L257.239 51H239.409L220.778 31.1441L214.368 36.4627V51H201.023V37.6509C196.781 46.5739 187.512 51.6992 175.627 51.6992C161.476 51.6992 150.055 43.6751 147.305 31.7979C144.58 43.6715 133.245 51.6992 118.978 51.6992C109.429 51.6992 101.228 48.1309 96.017 42.2348V51H50.5698V38.94C50.0024 42.2948 48.36 45.1084 45.7843 47.1749C42.5935 49.735 38.1617 51 33.0267 51H0.00488281ZM96.017 39.004C100.636 45.5632 108.911 49.6992 118.978 49.6992C134.553 49.6992 145.932 39.7189 145.932 26.1786C145.932 12.6383 134.553 2.65796 118.978 2.65796C103.34 2.65796 92.025 12.6383 92.025 26.1786C92.025 30.9681 93.4407 35.3122 95.9628 38.9267C95.9808 38.9525 95.9988 38.9782 96.017 39.004ZM201.023 33.6856V18.6716L190.736 23.8553L189.92 21.8453C188.753 18.969 186.98 16.752 184.666 15.2435C182.348 13.7323 179.373 12.8584 175.691 12.8584C171.099 12.8584 167.214 14.2609 164.509 16.5802C161.829 18.8781 160.209 22.1537 160.209 26.1786C160.209 30.2035 161.829 33.4791 164.509 35.777C167.214 38.0963 171.099 39.4988 175.691 39.4988C179.373 39.4988 182.348 38.6248 184.666 37.1137C186.98 35.6052 188.753 33.3882 189.92 30.5119L190.736 28.5019L201.023 33.6856ZM212.368 35.5233L220.949 28.4035L240.275 49H252.607L227.815 22.6823L251.145 3.35722H237.986L212.368 25.2251V3.35722H203.023V49H212.368V35.5233ZM43.0751 26.3394C42.3342 25.9154 41.544 25.5638 40.7186 25.2886C41.4629 24.9696 42.2326 24.5563 42.9731 24.0372C45.3315 22.3842 47.3934 19.6596 47.3934 15.499C47.3934 7.67993 41.7993 3.35722 31.946 3.35722H2.00488V49H33.0267C42.6892 49 48.7919 44.2323 48.7919 36.2225C48.7919 31.6894 46.4429 28.2666 43.0751 26.3394ZM12.9682 13.1127V19.9195H30.9925C33.1421 19.9195 34.5698 19.5045 35.4041 18.9296C36.1265 18.4319 36.5572 17.7188 36.5572 16.5161C36.5572 15.3541 36.1331 14.6331 35.3974 14.1216C34.5588 13.5387 33.1293 13.1127 30.9925 13.1127H12.9682ZM32.391 31.4842H12.9682V39.181H32.391C34.3937 39.181 35.7471 38.6728 36.5582 38.0148C37.3261 37.3917 37.765 36.5142 37.765 35.3326C37.765 34.1907 37.3316 33.3067 36.5523 32.6695C35.736 32.0021 34.3812 31.4842 32.391 31.4842ZM94.017 40.9267V49H52.5698V3.35722H61.9145V40.9267H94.017ZM130.176 16.5668C127.547 14.2653 123.706 12.8584 118.978 12.8584C114.251 12.8584 110.41 14.2653 107.78 16.5668C105.175 18.8477 103.624 22.1198 103.624 26.1786C103.624 30.2374 105.175 33.5095 107.78 35.7904C110.41 38.0919 114.251 39.4988 118.978 39.4988C123.706 39.4988 127.547 38.0919 130.176 35.7904C132.782 33.5095 134.333 30.2374 134.333 26.1786C134.333 22.1198 132.782 18.8477 130.176 16.5668ZM199.847 35.3326C196.351 44.2958 187.578 49.6992 175.627 49.6992C160.18 49.6992 148.674 39.7189 148.674 26.1786C148.674 12.6383 160.18 2.65796 175.627 2.65796C187.578 2.65796 196.351 8.06135 199.847 17.0246L191.774 21.0931C191.518 20.4637 191.235 19.8593 190.925 19.2811C188.071 13.9614 182.915 10.8584 175.691 10.8584C165.71 10.8584 158.209 16.9611 158.209 26.1786C158.209 35.3961 165.71 41.4988 175.691 41.4988C182.915 41.4988 188.071 38.3958 190.925 33.0761C191.235 32.4979 191.518 31.8935 191.774 31.2641L199.847 35.3326ZM289.439 16.232C285.756 12.6411 279.893 10.6041 273.037 10.6041C264.9 10.6041 261.213 13.2105 261.213 16.2618C261.213 19.5674 264.264 20.3302 275.834 21.6652C288.802 23.1273 297.956 24.8436 297.956 34.6969C297.956 44.6773 287.976 49.6992 275.071 49.6992C264.201 49.6992 253.394 45.5037 248.944 39.0832L255.238 32.5355C255.646 33.0833 256.073 33.6013 256.517 34.0911C261.736 39.8535 269.242 41.6895 275.453 41.6895C283.081 41.6895 288.484 39.401 288.484 35.714C288.484 31.4181 284.78 31.0148 272.131 29.6373L271.893 29.6113C260.705 28.34 252.123 26.2422 252.123 17.2153C252.123 8.5699 260.577 2.65796 273.546 2.65796C283.717 2.65796 292.871 6.28141 297.003 11.7484L290.773 17.7239C290.367 17.2006 289.922 16.703 289.439 16.232ZM340.444 3.35722H349.852V49H340.444V29.6113H311.138V49H301.794V3.35722H311.138V21.538H340.444V3.35722ZM351.975 26.1786C351.975 11.2921 364.444 0.657959 380.929 0.657959C389.979 0.657959 397.85 3.8888 403.091 9.28279V1.35722H456.802V13.4305H436.651V51H423.243V13.4305H406.332C408.605 17.108 409.882 21.4264 409.882 26.1786C409.882 41.068 397.346 51.6992 380.929 51.6992C364.444 51.6992 351.975 41.0651 351.975 26.1786ZM403.929 13.4305C403.662 13.0491 403.383 12.6758 403.091 12.3109C398.341 6.35889 390.413 2.65796 380.929 2.65796C365.29 2.65796 353.975 12.6383 353.975 26.1786C353.975 39.7189 365.29 49.6992 380.929 49.6992C396.503 49.6992 407.882 39.7189 407.882 26.1786C407.882 21.3891 406.458 17.045 403.929 13.4305ZM392.126 16.5668C389.497 14.2653 385.656 12.8584 380.929 12.8584C376.201 12.8584 372.36 14.2653 369.731 16.5668C367.125 18.8477 365.574 22.1198 365.574 26.1786C365.574 30.2374 367.125 33.5095 369.731 35.7904C372.36 38.0919 376.201 39.4988 380.929 39.4988C385.656 39.4988 389.497 38.0919 392.126 35.7904C394.732 33.5095 396.283 30.2374 396.283 26.1786C396.283 22.1198 394.732 18.8477 392.126 16.5668ZM405.091 11.4305V3.35722H454.802V11.4305H434.651V49H425.243V11.4305H405.091ZM10.9682 21.9195H30.9925C35.6966 21.9195 38.5572 20.1395 38.5572 16.5161C38.5572 12.9562 35.6966 11.1127 30.9925 11.1127H10.9682V21.9195ZM10.9682 29.4842V41.181H32.391C37.0316 41.181 39.765 38.8289 39.765 35.3326C39.765 31.8998 37.0316 29.4842 32.391 29.4842H10.9682ZM136.333 26.1786C136.333 16.9611 129.213 10.8584 118.978 10.8584C108.744 10.8584 101.624 16.9611 101.624 26.1786C101.624 35.3961 108.744 41.4988 118.978 41.4988C129.213 41.4988 136.333 35.3961 136.333 26.1786ZM398.283 26.1786C398.283 16.9611 391.163 10.8584 380.929 10.8584C370.694 10.8584 363.574 16.9611 363.574 26.1786C363.574 35.3961 370.694 41.4988 380.929 41.4988C391.163 41.4988 398.283 35.3961 398.283 26.1786Z" fill="white" fill-opacity="0.75"/>
</svg>
