<svg width="36" height="18" viewBox="0 0 36 18" fill="none" xmlns="http://www.w3.org/2000/svg">
<path d="M11.7677 0.325907C11.9982 0.130283 12.3341 0.0123408 12.6934 0.000938397C13.0527 -0.0106423 13.4024 0.0853889 13.6568 0.26551C13.9109 0.445632 14.0468 0.6931 14.0304 0.947511C14.0141 1.2021 13.8475 1.43996 13.5712 1.60297C10.7148 3.62789 12.1474 8.12605 15.6488 8.12605H34.7838C35.2259 8.1428 35.6247 8.31936 35.839 8.59355C36.0537 8.86756 36.0537 9.20057 35.839 9.47472C35.6247 9.74892 35.2259 9.92547 34.7838 9.94204H15.6562C12.1578 9.94204 10.7289 14.4382 13.5854 16.4578C13.8174 16.6299 13.9467 16.8585 13.9467 17.0964C13.9467 17.3342 13.8174 17.5629 13.5854 17.7349C13.3464 17.9047 13.0221 18 12.6837 18C12.3453 18 12.0207 17.9047 11.7819 17.7349L0.383701 9.66382C0.138638 9.4967 0 9.26634 0 9.02547C0 8.78441 0.138638 8.55386 0.383701 8.38693L11.7677 0.325907Z" fill="white"/>
</svg>
