<svg width="457" height="52" viewBox="0 0 457 52" fill="none" xmlns="http://www.w3.org/2000/svg">
<path fill-rule="evenodd" clip-rule="evenodd" d="M0.00488281 1.35722V51H33.0267C38.1617 51 42.5935 49.735 45.7843 47.1749C48.36 45.1084 50.0024 42.2948 50.5698 38.94V51H96.017V42.2348C101.228 48.1309 109.429 51.6992 118.978 51.6992C133.245 51.6992 144.58 43.6715 147.305 31.7979C150.055 43.6751 161.476 51.6992 175.627 51.6992C187.512 51.6992 196.781 46.5739 201.023 37.6509V51H214.368V36.4627L220.778 31.1441L239.409 51H257.239L249.779 43.0816C252.213 45.3827 255.368 47.2566 258.856 48.6552C263.719 50.6054 269.392 51.6992 275.071 51.6992C281.741 51.6992 287.865 50.4078 292.394 47.6487C296.376 45.2225 299.117 41.6475 299.794 36.9931V51H313.138V31.6113H338.444V51H351.852V1.35722H338.444V19.538H313.138V1.35722H299.794V32.3961C299.525 30.5843 298.923 28.9842 297.98 27.5894C296.665 25.6433 294.792 24.2538 292.611 23.2254C288.35 21.2158 282.476 20.4013 276.06 19.6779C270.203 19.0021 266.798 18.4959 264.844 17.8141C263.895 17.4829 263.539 17.19 263.404 17.0285C263.317 16.9254 263.213 16.758 263.213 16.2618C263.213 15.6839 263.52 14.85 265.014 14.0538C266.552 13.2344 269.141 12.6041 273.037 12.6041C280.41 12.6041 286.199 15.0847 289.192 18.9487L290.553 20.706L299.67 11.9609L298.598 10.5424C293.941 4.381 284.051 0.657959 273.546 0.657959C266.785 0.657959 261 2.19526 256.841 5.04468C252.631 7.92876 250.123 12.1531 250.123 17.2153C250.123 19.8043 250.744 22.0236 251.969 23.8822C253.185 25.7279 254.908 27.0832 256.902 28.1024C260.809 30.0997 266.093 30.9651 271.667 31.5986L271.676 31.5996C278.217 32.3119 282.098 32.7388 284.397 33.4716C285.506 33.8252 285.958 34.1684 286.159 34.4107C286.32 34.605 286.484 34.9295 286.484 35.714C286.484 36.3942 286.017 37.3603 284.011 38.2594C282.054 39.1365 279.104 39.6895 275.453 39.6895C269.064 39.6895 261.535 37.6368 256.841 31.3402L255.431 29.4484L246.368 38.8772L247.3 40.2224C247.582 40.629 247.885 41.0258 248.207 41.4125L230.732 22.8626L256.695 1.35722H237.248L214.368 20.8883V1.35722H201.023V14.7063C196.781 5.78332 187.512 0.657959 175.627 0.657959C161.476 0.657959 150.055 8.68208 147.305 20.5593C144.58 8.68565 133.245 0.657959 118.978 0.657959C102.494 0.657959 90.025 11.2921 90.025 26.1786C90.025 30.9304 91.2954 35.249 93.5614 38.9267H63.9145V1.35722H50.5698V33.684C49.8961 29.9393 47.7449 27.0092 44.8744 25.103C47.3266 23.1172 49.3934 20.0199 49.3934 15.499C49.3934 11.0656 47.7794 7.4109 44.5971 4.92084C41.4888 2.48866 37.127 1.35722 31.946 1.35722H0.00488281ZM190.736 23.8553L201.023 18.6716V33.6856L190.736 28.5019L189.92 30.5119C188.753 33.3882 186.98 35.6052 184.666 37.1137C182.348 38.6248 179.373 39.4988 175.691 39.4988C171.099 39.4988 167.214 38.0963 164.509 35.777C161.829 33.4791 160.209 30.2035 160.209 26.1786C160.209 22.1537 161.829 18.8781 164.509 16.5802C167.214 14.2609 171.099 12.8584 175.691 12.8584C179.373 12.8584 182.348 13.7323 184.666 15.2435C186.98 16.752 188.753 18.969 189.92 21.8453L190.736 23.8553ZM12.9682 19.9195V13.1127H30.9925C33.1293 13.1127 34.5588 13.5387 35.3974 14.1216C36.1331 14.6331 36.5572 15.3541 36.5572 16.5161C36.5572 17.7188 36.1265 18.4319 35.4041 18.9296C34.5698 19.5045 33.1422 19.9195 30.9925 19.9195H12.9682ZM12.9682 31.4842H32.391C34.3812 31.4842 35.736 32.0021 36.5523 32.6695C37.3316 33.3067 37.765 34.1907 37.765 35.3326C37.765 36.5142 37.3261 37.3917 36.5582 38.0148C35.7471 38.6728 34.3937 39.181 32.391 39.181H12.9682V31.4842ZM118.978 12.8584C123.706 12.8584 127.547 14.2653 130.176 16.5668C132.782 18.8477 134.333 22.1198 134.333 26.1786C134.333 30.2374 132.782 33.5095 130.176 35.7904C127.547 38.0919 123.706 39.4988 118.978 39.4988C114.251 39.4988 110.41 38.0919 107.78 35.7904C105.175 33.5095 103.624 30.2374 103.624 26.1786C103.624 22.1198 105.175 18.8477 107.78 16.5668C110.41 14.2653 114.251 12.8584 118.978 12.8584ZM380.929 0.657959C364.444 0.657959 351.975 11.2921 351.975 26.1786C351.975 41.0651 364.444 51.6992 380.929 51.6992C397.346 51.6992 409.882 41.068 409.882 26.1786C409.882 21.4264 408.605 17.108 406.332 13.4305H423.243V51H436.651V13.4305H456.802V1.35722H403.091V9.28279C397.85 3.8888 389.979 0.657959 380.929 0.657959ZM380.929 12.8584C385.656 12.8584 389.497 14.2653 392.126 16.5668C394.732 18.8477 396.283 22.1198 396.283 26.1786C396.283 30.2374 394.732 33.5095 392.126 35.7904C389.497 38.0919 385.656 39.4988 380.929 39.4988C376.201 39.4988 372.36 38.0919 369.731 35.7904C367.125 33.5095 365.574 30.2374 365.574 26.1786C365.574 22.1198 367.125 18.8477 369.731 16.5668C372.36 14.2653 376.201 12.8584 380.929 12.8584Z" fill="white" fill-opacity="0.75"/>
</svg>
