<svg width="36" height="18" viewBox="0 0 36 18" fill="none" xmlns="http://www.w3.org/2000/svg">
<path d="M24.2323 0.325907C24.0018 0.130283 23.6659 0.0123408 23.3066 0.000938397C22.9473 -0.0106423 22.5976 0.0853889 22.3432 0.26551C22.0891 0.445632 21.9532 0.6931 21.9696 0.947511C21.9859 1.2021 22.1525 1.43996 22.4288 1.60297C25.2852 3.62789 23.8526 8.12605 20.3512 8.12605H1.21621C0.774139 8.1428 0.375324 8.31936 0.160964 8.59355C-0.0536545 8.86756 -0.0536545 9.20057 0.160964 9.47472C0.375331 9.74892 0.774126 9.92547 1.21621 9.94204H20.3438C23.8422 9.94204 25.2711 14.4382 22.4146 16.4578C22.1826 16.6299 22.0533 16.8585 22.0533 17.0964C22.0533 17.3342 22.1826 17.5629 22.4146 17.7349C22.6536 17.9047 22.9779 18 23.3163 18C23.6547 18 23.9793 17.9047 24.2181 17.7349L35.6163 9.66382C35.8614 9.4967 36 9.26634 36 9.02547C36 8.78441 35.8614 8.55386 35.6163 8.38693L24.2323 0.325907Z" fill="white"/>
</svg>
